<svg version="1.1" id="Layer_1" xmlns="http://www.w3.org/2000/svg" xmlns:xlink="http://www.w3.org/1999/xlink" x="0px" y="0px"
	 width="100%" viewBox="0 0 2400 2250" enable-background="new 0 0 2400 2250" xml:space="preserve">
<path fill="#000000" opacity="1.000000" stroke="none" 
	d="
M2.000001,1072.000000 
	C2.000000,715.365356 2.000000,358.730713 2.000000,2.048024 
	C801.896179,2.048024 1601.792358,2.048024 2401.844238,2.048024 
	C2401.844238,751.828857 2401.844238,1501.657715 2401.844238,2251.743164 
	C1602.243042,2251.743164 802.485962,2251.743164 2.000000,2251.743164 
	C2.000000,1897.274902 2.000000,1542.549316 2.579093,1186.024414 
	C4.195900,1185.955811 5.892749,1187.598999 6.137179,1189.435425 
	C6.683717,1193.541626 6.506505,1197.743896 6.495028,1202.416992 
	C6.806248,1203.441406 7.246527,1203.955688 7.676864,1205.362549 
	C7.989367,1213.472290 8.311813,1220.689819 8.506145,1228.415405 
	C8.815261,1229.437622 9.252490,1229.951538 9.678909,1231.351074 
	C11.941577,1252.643555 13.594035,1273.142578 16.599667,1293.441284 
	C27.632181,1367.949707 46.132145,1440.605347 71.939995,1511.384766 
	C100.078545,1588.555908 136.275116,1661.772339 180.719284,1730.818359 
	C231.182022,1809.214478 290.189636,1880.551147 358.541016,1944.111816 
	C391.935577,1975.165894 426.780792,2004.380615 463.592468,2031.315308 
	C545.706116,2091.397217 634.263611,2139.552246 729.424133,2175.506836 
	C826.401062,2212.147705 928.075562,2235.401855 1033.241211,2243.907959 
	C1051.426758,2245.378906 1069.631348,2247.049561 1087.854980,2247.503906 
	C1111.162842,2248.084961 1134.499023,2247.525391 1158.557251,2247.673340 
	C1161.253418,2247.734619 1163.215454,2247.579590 1165.177368,2247.424561 
	C1165.237183,2246.743408 1165.296997,2246.062500 1165.356689,2245.381592 
	C1162.870605,2245.010742 1160.384399,2244.639893 1157.110840,2244.057617 
	C1122.543213,2236.734375 1088.563110,2230.449219 1055.023438,2222.342285 
	C980.213013,2204.259521 908.420715,2177.502441 839.080017,2144.206787 
	C787.709717,2119.540283 738.513367,2091.082031 691.335449,2059.062012 
	C624.468018,2013.678223 562.971130,1962.043457 507.052216,1903.668579 
	C482.178009,1877.702148 458.491791,1850.771240 436.095642,1822.655884 
	C381.736511,1754.415161 335.903076,1680.921265 298.645172,1602.001465 
	C271.601532,1544.717407 249.537384,1485.628418 232.642792,1424.617554 
	C212.827164,1353.057983 199.877487,1280.292847 195.444794,1205.610229 
	C195.145309,1204.595947 194.728424,1204.081299 194.322083,1202.656128 
	C193.667252,1186.143311 192.476883,1170.541504 192.459137,1154.938354 
	C192.432266,1131.323242 192.649857,1107.679199 193.813141,1084.099121 
	C195.184555,1056.300171 197.056824,1028.494751 199.820679,1000.802673 
	C204.311935,955.803101 212.731583,911.412720 223.396606,867.490112 
	C244.194077,781.838318 274.511017,699.718201 314.987579,621.336121 
	C336.543274,579.593933 360.475861,539.341064 386.828705,500.464905 
	C421.254150,449.679810 459.725250,402.135956 501.964203,357.731262 
	C536.616455,321.302246 573.446472,287.137482 612.683838,255.576935 
	C670.422974,209.134521 731.782959,168.304672 797.246094,133.535416 
	C837.842651,111.973488 879.479675,92.756950 922.282776,76.101593 
	C977.521729,54.607246 1034.090332,37.310898 1092.077148,24.977345 
	C1116.412476,19.801325 1141.058716,16.086819 1166.113525,11.767532 
	C1167.352905,11.090054 1168.042358,10.352911 1168.731689,9.615767 
	C1167.814941,9.763459 1166.898193,9.911154 1165.107422,10.030576 
	C1155.288696,9.446033 1146.326660,8.220976 1137.402832,8.455613 
	C1107.509766,9.241600 1077.599365,10.031229 1047.755615,11.820878 
	C1023.954529,13.248163 1000.138977,15.373228 976.509338,18.531044 
	C919.798035,26.109777 863.930603,37.926147 809.027222,54.152660 
	C752.469666,70.868034 697.489868,91.736443 644.282898,117.168198 
	C606.427124,135.262405 569.588684,155.261719 533.966736,177.477280 
	C493.823547,202.512527 455.309204,229.809128 418.688110,259.776306 
	C382.107452,289.710449 346.848175,321.066437 314.718750,355.814728 
	C302.074127,369.490051 289.002655,382.799957 276.883942,396.926849 
	C242.412460,437.110352 210.564789,479.282013 181.916885,523.858337 
	C152.240005,570.035828 125.616615,617.903748 103.455818,668.095642 
	C90.170189,698.186340 77.671410,728.720276 66.714867,759.724915 
	C37.368954,842.767456 19.023533,928.376770 9.553152,1016.135010 
	C9.150732,1016.511841 8.917875,1016.748230 8.962075,1016.907776 
	C9.075987,1017.318787 9.312506,1017.695801 9.567792,1018.940430 
	C8.509643,1035.940918 7.411150,1052.089600 6.214766,1068.230957 
	C6.097012,1069.819702 5.378960,1071.363892 4.939535,1072.928833 
	C3.959693,1072.619263 2.979847,1072.309570 2.000001,1072.000000 
M2395.711182,1186.778931 
	C2395.711182,1186.778931 2395.333252,1185.964966 2395.988770,1184.214355 
	C2396.547119,1168.364868 2397.676025,1152.510010 2397.527588,1136.667114 
	C2397.314209,1113.858276 2396.172363,1091.058105 2396.572998,1067.293335 
	C2395.111328,1047.148193 2394.116699,1026.955200 2392.059326,1006.871216 
	C2389.927734,986.067383 2386.591309,965.389526 2384.174805,944.610901 
	C2383.560303,939.327759 2381.059082,937.746338 2375.617920,936.490845 
	C2374.511475,931.305603 2373.375732,926.126404 2372.304688,920.933960 
	C2369.766357,908.625977 2367.615234,896.225403 2364.660400,884.018921 
	C2359.478271,862.613159 2353.811523,841.324890 2349.782715,820.095520 
	C2351.567627,819.557007 2353.352539,819.018494 2355.572754,818.348511 
	C2354.272461,813.608826 2353.401367,809.367371 2351.955078,805.332153 
	C2341.287354,775.567200 2331.183350,745.576050 2319.593262,716.171814 
	C2303.816406,676.143372 2284.182129,637.863586 2262.830322,600.553040 
	C2238.160400,557.444580 2210.204834,516.489380 2179.640381,477.298798 
	C2154.027100,444.456909 2126.556152,413.245148 2097.762451,383.212891 
	C2083.949463,368.805634 2069.040527,355.454041 2054.763672,341.485321 
	C2029.267700,316.539246 2001.838745,293.849579 1973.777222,271.902710 
	C1935.679932,242.107010 1895.548706,215.294250 1853.671387,191.135590 
	C1819.034546,171.153885 1783.247070,153.434326 1746.409302,137.835556 
	C1701.873901,118.977287 1656.385132,102.726036 1609.445068,91.186859 
	C1575.570435,82.859512 1541.235840,76.237679 1506.892456,70.041252 
	C1485.022217,66.095306 1462.797485,63.964455 1440.664429,61.668411 
	C1418.873047,59.407829 1397.020020,56.843437 1375.153076,56.392570 
	C1326.252319,55.384304 1277.296997,54.463531 1228.521973,59.819859 
	C1202.434814,62.684685 1176.238281,64.806877 1150.288574,68.611679 
	C1107.466919,74.890259 1065.226074,84.160973 1023.576172,96.053322 
	C967.409058,112.090820 912.896118,132.488220 860.338013,157.982437 
	C810.505737,182.154449 763.061829,210.372726 717.617981,242.074173 
	C666.150452,277.977692 618.538574,318.483032 573.517151,362.030609 
	C555.841248,379.127899 539.666321,397.783569 522.917542,415.831360 
	C496.160065,444.663971 471.994720,475.576935 448.912354,507.407990 
	C410.475250,560.413696 377.383850,616.461243 349.801697,675.880859 
	C330.126678,718.266357 313.602325,761.773560 299.753998,806.343689 
	C298.589966,810.090088 298.420532,814.145508 296.642365,818.893860 
	C290.774475,828.696411 289.910583,840.131775 286.394562,850.705994 
	C283.681641,858.864990 281.932617,867.374451 280.184113,875.816956 
	C277.748718,887.575989 275.858429,899.447449 273.462067,911.215271 
	C271.537445,920.666443 268.553589,929.960693 269.092560,940.890137 
	C268.047791,946.744690 266.757111,952.567749 266.004059,958.459595 
	C263.697754,976.504211 261.190277,994.537964 259.533417,1012.646545 
	C257.908142,1030.410034 257.229645,1048.260132 255.958267,1066.999268 
	C255.958267,1066.999268 255.956970,1067.943848 254.778046,1069.164185 
	C254.411789,1103.255127 253.927032,1137.345459 253.795044,1171.437378 
	C253.772842,1177.171021 255.275696,1182.910645 255.808548,1190.415405 
	C255.887970,1195.732666 255.595947,1201.086182 256.108948,1206.361328 
	C258.834808,1234.391479 261.572388,1262.423584 264.728943,1290.407227 
	C265.761597,1299.561768 268.065430,1308.572998 269.681183,1319.479492 
	C271.137360,1330.736694 272.465271,1342.012695 274.114197,1353.241577 
	C274.753418,1357.594482 276.074371,1361.852051 277.162628,1366.133179 
	C279.474823,1375.229248 282.346954,1384.217163 284.065094,1393.421997 
	C286.885132,1408.530151 291.224731,1423.159302 296.638428,1439.105835 
	C315.632538,1503.502930 340.549927,1565.451538 372.136963,1624.767944 
	C393.153503,1664.234253 416.536743,1702.155762 442.319824,1738.656128 
	C474.652618,1784.428833 510.594727,1827.233032 549.205872,1867.757568 
	C576.311279,1896.206299 605.203064,1922.821533 635.005615,1948.485352 
	C679.778381,1987.039917 727.328491,2021.685669 777.685486,2052.536377 
	C813.515076,2074.487061 850.719666,2093.865723 888.984619,2111.143555 
	C931.230896,2130.218750 974.760132,2145.939209 1019.302856,2158.780273 
	C1055.142090,2169.112061 1091.354004,2178.002441 1128.196899,2183.883789 
	C1153.782349,2187.968506 1179.502686,2191.325439 1205.248657,2194.250000 
	C1226.684692,2196.685059 1248.222656,2199.183594 1269.756226,2199.614746 
	C1329.314697,2200.807373 1388.919922,2201.690918 1448.232178,2194.149902 
	C1470.977173,2191.258057 1493.829956,2188.993164 1516.427490,2185.210693 
	C1554.181396,2178.891113 1591.516602,2170.481934 1628.341431,2159.914307 
	C1678.694946,2145.464355 1727.726074,2127.416016 1775.174683,2105.237549 
	C1828.394897,2080.361572 1879.005371,2050.939453 1927.257080,2017.363770 
	C1973.271973,1985.344360 2016.299194,1949.682739 2057.074463,1911.356201 
	C2077.924561,1891.758301 2097.679688,1870.932861 2117.110107,1849.904907 
	C2135.615723,1829.877930 2153.539795,1809.264404 2170.866211,1788.206665 
	C2211.394775,1738.950195 2246.562256,1685.992065 2276.842529,1629.877930 
	C2307.769043,1572.566284 2333.066406,1512.818726 2351.990479,1450.451050 
	C2353.222168,1446.391357 2353.403564,1442.013062 2354.835938,1436.473022 
	C2357.908447,1425.239258 2361.199463,1414.059814 2364.004150,1402.759644 
	C2368.629883,1384.123535 2373.154785,1365.456543 2377.296387,1346.708618 
	C2379.412842,1337.127319 2380.604248,1327.341919 2383.063965,1316.383057 
	C2389.950928,1278.247803 2394.744385,1239.872437 2396.124756,1201.116577 
	C2396.284180,1196.644531 2395.921631,1192.153809 2395.711182,1186.778931 
z"/>
<path fill="#F6931E" opacity="1.000000" stroke="none" 
	d="
M9.848941,1015.959595 
	C19.023533,928.376770 37.368954,842.767456 66.714867,759.724915 
	C77.671410,728.720276 90.170189,698.186340 103.455818,668.095642 
	C125.616615,617.903748 152.240005,570.035828 181.916885,523.858337 
	C210.564789,479.282013 242.412460,437.110352 276.883942,396.926849 
	C289.002655,382.799957 302.074127,369.490051 314.718750,355.814728 
	C346.848175,321.066437 382.107452,289.710449 418.688110,259.776306 
	C455.309204,229.809128 493.823547,202.512527 533.966736,177.477280 
	C569.588684,155.261719 606.427124,135.262405 644.282898,117.168198 
	C697.489868,91.736443 752.469666,70.868034 809.027222,54.152660 
	C863.930603,37.926147 919.798035,26.109777 976.509338,18.531044 
	C1000.138977,15.373228 1023.954529,13.248163 1047.755615,11.820878 
	C1077.599365,10.031229 1107.509766,9.241600 1137.402832,8.455613 
	C1146.326660,8.220976 1155.288696,9.446033 1164.956543,10.431103 
	C1165.679932,10.859903 1165.563599,11.707863 1165.563599,11.707867 
	C1141.058716,16.086819 1116.412476,19.801325 1092.077148,24.977345 
	C1034.090332,37.310898 977.521729,54.607246 922.282776,76.101593 
	C879.479675,92.756950 837.842651,111.973488 797.246094,133.535416 
	C731.782959,168.304672 670.422974,209.134521 612.683838,255.576935 
	C573.446472,287.137482 536.616455,321.302246 501.964203,357.731262 
	C459.725250,402.135956 421.254150,449.679810 386.828705,500.464905 
	C360.475861,539.341064 336.543274,579.593933 314.987579,621.336121 
	C274.511017,699.718201 244.194077,781.838318 223.396606,867.490112 
	C212.731583,911.412720 204.311935,955.803101 199.820679,1000.802673 
	C197.056824,1028.494751 195.184555,1056.300171 193.813141,1084.099121 
	C192.649857,1107.679199 192.432266,1131.323242 192.459137,1154.938354 
	C192.476883,1170.541504 193.667252,1186.143311 194.265671,1203.149414 
	C194.312683,1205.262085 194.688904,1205.781006 195.327408,1206.109863 
	C199.877487,1280.292847 212.827164,1353.057983 232.642792,1424.617554 
	C249.537384,1485.628418 271.601532,1544.717407 298.645172,1602.001465 
	C335.903076,1680.921265 381.736511,1754.415161 436.095642,1822.655884 
	C458.491791,1850.771240 482.178009,1877.702148 507.052216,1903.668579 
	C562.971130,1962.043457 624.468018,2013.678223 691.335449,2059.062012 
	C738.513367,2091.082031 787.709717,2119.540283 839.080017,2144.206787 
	C908.420715,2177.502441 980.213013,2204.259521 1055.023438,2222.342285 
	C1088.563110,2230.449219 1122.543213,2236.734375 1157.074219,2244.588867 
	C1157.824219,2246.040039 1157.823608,2246.748779 1157.822998,2247.457275 
	C1134.499023,2247.525391 1111.162842,2248.084961 1087.854980,2247.503906 
	C1069.631348,2247.049561 1051.426758,2245.378906 1033.241211,2243.907959 
	C928.075562,2235.401855 826.401062,2212.147705 729.424133,2175.506836 
	C634.263611,2139.552246 545.706116,2091.397217 463.592468,2031.315308 
	C426.780792,2004.380615 391.935577,1975.165894 358.541016,1944.111816 
	C290.189636,1880.551147 231.182022,1809.214478 180.719284,1730.818359 
	C136.275116,1661.772339 100.078545,1588.555908 71.939995,1511.384766 
	C46.132145,1440.605347 27.632181,1367.949707 16.599667,1293.441284 
	C13.594035,1273.142578 11.941577,1252.643555 9.712061,1230.856934 
	C9.620017,1228.784058 9.246096,1228.260620 8.634260,1227.907227 
	C8.311813,1220.689819 7.989367,1213.472290 7.706096,1204.868042 
	C7.604506,1202.790527 7.230778,1202.265869 6.624086,1201.907104 
	C6.506505,1197.743896 6.683717,1193.541626 6.137179,1189.435425 
	C5.892749,1187.598999 4.195900,1185.955811 2.579093,1185.112549 
	C2.000000,1183.866577 2.000000,1181.733276 2.553499,1179.691650 
	C7.076725,1178.270752 5.509927,1175.454956 4.744119,1172.827637 
	C3.829405,1173.218384 2.914696,1173.609131 1.999994,1174.000000 
	C2.000000,1140.624878 2.000000,1107.249756 2.000001,1072.937256 
	C2.979847,1072.309570 3.959693,1072.619263 4.939535,1072.928833 
	C5.378960,1071.363892 6.097012,1069.819702 6.214766,1068.230957 
	C7.411150,1052.089600 8.509643,1035.940918 9.782368,1018.429626 
	C9.902433,1016.696411 9.875687,1016.328003 9.848941,1015.959595 
z"/>
<path fill="#000000" opacity="1.000000" stroke="none" 
	d="
M1.999994,1174.666626 
	C2.914696,1173.609131 3.829405,1173.218384 4.744119,1172.827637 
	C5.509927,1175.454956 7.076725,1178.270752 2.553499,1178.891724 
	C2.000000,1177.111084 2.000000,1176.222168 1.999994,1174.666626 
z"/>
<path fill="#2C2255" opacity="1.000000" stroke="none" 
	d="
M297.789032,818.057373 
	C298.420532,814.145508 298.589966,810.090088 299.753998,806.343689 
	C313.602325,761.773560 330.126678,718.266357 349.801697,675.880859 
	C377.383850,616.461243 410.475250,560.413696 448.912354,507.407990 
	C471.994720,475.576935 496.160065,444.663971 522.917542,415.831360 
	C539.666321,397.783569 555.841248,379.127899 573.517151,362.030609 
	C618.538574,318.483032 666.150452,277.977692 717.617981,242.074173 
	C763.061829,210.372726 810.505737,182.154449 860.338013,157.982437 
	C912.896118,132.488220 967.409058,112.090820 1023.576172,96.053322 
	C1065.226074,84.160973 1107.466919,74.890259 1150.288574,68.611679 
	C1176.238281,64.806877 1202.434814,62.684685 1228.521973,59.819859 
	C1277.296997,54.463531 1326.252319,55.384304 1375.153076,56.392570 
	C1397.020020,56.843437 1418.873047,59.407829 1440.664429,61.668411 
	C1462.797485,63.964455 1485.022217,66.095306 1506.892456,70.041252 
	C1541.235840,76.237679 1575.570435,82.859512 1609.445068,91.186859 
	C1656.385132,102.726036 1701.873901,118.977287 1746.409302,137.835556 
	C1783.247070,153.434326 1819.034546,171.153885 1853.671387,191.135590 
	C1895.548706,215.294250 1935.679932,242.107010 1973.777222,271.902710 
	C2001.838745,293.849579 2029.267700,316.539246 2054.763672,341.485321 
	C2069.040527,355.454041 2083.949463,368.805634 2097.762451,383.212891 
	C2126.556152,413.245148 2154.027100,444.456909 2179.640381,477.298798 
	C2210.204834,516.489380 2238.160400,557.444580 2262.830322,600.553040 
	C2284.182129,637.863586 2303.816406,676.143372 2319.593262,716.171814 
	C2331.183350,745.576050 2341.287354,775.567200 2351.955078,805.332153 
	C2353.401367,809.367371 2354.272461,813.608826 2355.572754,818.348511 
	C2353.352539,819.018494 2351.567627,819.557007 2348.142090,819.752075 
	C2341.839355,819.320618 2337.177246,819.155579 2332.514893,819.155518 
	C1658.517822,819.144043 984.520630,819.146545 310.523529,819.099670 
	C306.278656,819.099365 302.033875,818.419800 297.789032,818.057373 
z"/>
<path fill="#2C2255" opacity="1.000000" stroke="none" 
	d="
M2354.073730,1437.782959 
	C2353.403564,1442.013062 2353.222168,1446.391357 2351.990479,1450.451050 
	C2333.066406,1512.818726 2307.769043,1572.566284 2276.842529,1629.877930 
	C2246.562256,1685.992065 2211.394775,1738.950195 2170.866211,1788.206665 
	C2153.539795,1809.264404 2135.615723,1829.877930 2117.110107,1849.904907 
	C2097.679688,1870.932861 2077.924561,1891.758301 2057.074463,1911.356201 
	C2016.299194,1949.682739 1973.271973,1985.344360 1927.257080,2017.363770 
	C1879.005371,2050.939453 1828.394897,2080.361572 1775.174683,2105.237549 
	C1727.726074,2127.416016 1678.694946,2145.464355 1628.341431,2159.914307 
	C1591.516602,2170.481934 1554.181396,2178.891113 1516.427490,2185.210693 
	C1493.829956,2188.993164 1470.977173,2191.258057 1448.232178,2194.149902 
	C1388.919922,2201.690918 1329.314697,2200.807373 1269.756226,2199.614746 
	C1248.222656,2199.183594 1226.684692,2196.685059 1205.248657,2194.250000 
	C1179.502686,2191.325439 1153.782349,2187.968506 1128.196899,2183.883789 
	C1091.354004,2178.002441 1055.142090,2169.112061 1019.302856,2158.780273 
	C974.760132,2145.939209 931.230896,2130.218750 888.984619,2111.143555 
	C850.719666,2093.865723 813.515076,2074.487061 777.685486,2052.536377 
	C727.328491,2021.685669 679.778381,1987.039917 635.005615,1948.485352 
	C605.203064,1922.821533 576.311279,1896.206299 549.205872,1867.757568 
	C510.594727,1827.233032 474.652618,1784.428833 442.319824,1738.656128 
	C416.536743,1702.155762 393.153503,1664.234253 372.136963,1624.767944 
	C340.549927,1565.451538 315.632538,1503.502930 297.370331,1438.314453 
	C416.420258,1437.523926 534.738281,1437.520874 653.056274,1437.543945 
	C656.709106,1437.544678 660.361877,1437.817993 664.304199,1438.601318 
	C684.071655,1480.153320 706.452393,1519.356079 733.231323,1555.984253 
	C751.272400,1580.661011 769.916565,1604.823486 791.467224,1626.609131 
	C794.956787,1630.136597 797.753479,1634.359253 801.305481,1637.813110 
	C807.897644,1644.222900 812.904480,1652.458252 822.264893,1656.707031 
	C837.100830,1673.442139 854.111511,1686.739502 870.983337,1700.270996 
	C908.246216,1730.156128 948.148560,1755.960083 990.412537,1778.065796 
	C1034.807739,1801.285889 1081.359131,1819.242554 1129.585327,1832.771484 
	C1163.554932,1842.300903 1198.057617,1849.540161 1233.077271,1853.750000 
	C1256.458862,1856.560913 1279.994141,1859.028442 1303.507812,1859.561279 
	C1330.407471,1860.170532 1357.434570,1859.469971 1384.266357,1857.465210 
	C1407.715576,1855.713135 1431.004272,1851.586670 1454.303589,1848.106323 
	C1490.604736,1842.683838 1525.944946,1833.064819 1560.581055,1821.242676 
	C1603.170898,1806.705444 1644.334351,1788.720947 1683.488403,1766.316650 
	C1709.513794,1751.424561 1735.213745,1735.968018 1758.935059,1717.636963 
	C1779.402466,1701.820679 1798.946167,1684.802979 1818.767212,1668.160522 
	C1824.077637,1663.701660 1828.908936,1658.671997 1834.546631,1653.596802 
	C1844.983154,1642.992554 1855.130005,1632.960815 1864.612793,1622.336548 
	C1878.290405,1607.012207 1892.152344,1591.776245 1904.755249,1575.583984 
	C1936.041748,1535.387817 1962.318115,1491.988037 1984.773071,1446.278320 
	C1986.077759,1443.622070 1986.924805,1440.740967 1988.906006,1437.772461 
	C2109.583984,1437.561768 2229.341064,1437.541992 2349.097900,1437.534912 
	C2350.756592,1437.534912 2352.415283,1437.696655 2354.073730,1437.782959 
z"/>
<path fill="#2D2357" opacity="1.000000" stroke="none" 
	d="
M256.135590,1066.072144 
	C257.229645,1048.260132 257.908142,1030.410034 259.533417,1012.646545 
	C261.190277,994.537964 263.697754,976.504211 266.004059,958.459595 
	C266.757111,952.567749 268.047791,946.744690 270.589386,940.190063 
	C393.070801,939.433899 514.055359,939.337280 635.039978,939.329529 
	C978.331787,939.307495 1321.623535,939.308228 1664.915405,939.326599 
	C1897.886841,939.339050 2130.858398,939.404175 2363.829834,939.371704 
	C2368.016602,939.371094 2372.203613,938.441650 2376.390381,937.945557 
	C2381.059082,937.746338 2383.560303,939.327759 2384.174805,944.610901 
	C2386.591309,965.389526 2389.927734,986.067383 2392.059326,1006.871216 
	C2394.116699,1026.955200 2395.111328,1047.148193 2395.096680,1067.778320 
	C2389.288818,1068.217773 2384.957520,1068.132202 2380.626221,1068.132202 
	C1677.408325,1068.126343 974.190491,1068.127197 270.972626,1068.111206 
	C266.649445,1068.111206 262.326233,1067.879272 257.757202,1067.407837 
	C257.113953,1066.645508 256.655365,1066.316284 256.135590,1066.072144 
z"/>
<path fill="#FFFFFF" opacity="1.000000" stroke="none" 
	d="
M258.003052,1067.755615 
	C262.326233,1067.879272 266.649445,1068.111206 270.972626,1068.111206 
	C974.190491,1068.127197 1677.408325,1068.126343 2380.626221,1068.132202 
	C2384.957520,1068.132202 2389.288818,1068.217773 2394.523438,1068.258789 
	C2396.172363,1091.058105 2397.314209,1113.858276 2397.527588,1136.667114 
	C2397.676025,1152.510010 2396.547119,1168.364868 2395.166260,1185.149170 
	C2393.564453,1186.668701 2392.785156,1187.253296 2391.082031,1188.010620 
	C2282.097900,1188.200684 2174.037842,1188.213867 2065.977539,1188.252563 
	C2061.999023,1188.253906 2058.020264,1188.504639 2053.121826,1188.433105 
	C2050.869629,1188.204346 2049.537109,1188.161987 2048.204834,1188.161987 
	C1567.772461,1188.158691 1087.340210,1188.157349 606.907837,1188.177856 
	C603.924927,1188.177979 600.941956,1188.479370 597.039185,1188.464844 
	C487.391052,1188.271362 378.662750,1188.257568 269.934479,1188.218750 
	C265.955261,1188.217285 261.976105,1187.970459 257.811340,1187.575195 
	C257.022766,1186.909668 256.451202,1186.958130 255.680359,1187.792480 
	C255.449661,1188.127075 256.073914,1188.647461 256.073914,1188.647461 
	C255.275696,1182.910645 253.772842,1177.171021 253.795044,1171.437378 
	C253.927032,1137.345459 254.411789,1103.255127 255.891769,1068.644531 
	C257.338013,1068.001831 257.670532,1067.878784 258.003052,1067.755615 
z"/>
<path fill="#FFFFFF" opacity="1.000000" stroke="none" 
	d="
M2354.455078,1437.127930 
	C2352.415283,1437.696655 2350.756592,1437.534912 2349.097900,1437.534912 
	C2229.341064,1437.541992 2109.583984,1437.561768 1987.995117,1437.539551 
	C1983.831787,1437.465942 1981.500488,1437.404785 1979.169067,1437.404785 
	C1544.095581,1437.400391 1109.021973,1437.399292 673.948425,1437.423950 
	C670.637207,1437.424194 667.325928,1437.776489 664.014709,1437.964355 
	C660.361877,1437.817993 656.709106,1437.544678 653.056274,1437.543945 
	C534.738281,1437.520874 416.420258,1437.523926 297.184235,1437.573364 
	C291.224731,1423.159302 286.885132,1408.530151 284.065094,1393.421997 
	C282.346954,1384.217163 279.474823,1375.229248 277.162628,1366.133179 
	C276.074371,1361.852051 274.753418,1357.594482 274.114197,1353.241577 
	C272.465271,1342.012695 271.137360,1330.736694 270.677429,1318.427002 
	C383.120728,1317.357666 494.567780,1317.347168 606.014832,1317.298218 
	C609.982666,1317.296509 613.950439,1316.916138 618.822266,1316.993774 
	C622.058105,1317.306519 624.389832,1317.365234 626.721619,1317.365234 
	C1092.544189,1317.369141 1558.366821,1317.370239 2024.189453,1317.341187 
	C2027.491089,1317.340942 2030.792847,1316.919312 2034.991089,1316.956909 
	C2147.343994,1317.254150 2258.800293,1317.285767 2370.256592,1317.337524 
	C2374.242188,1317.339355 2378.228027,1317.540405 2382.213623,1317.648682 
	C2380.604248,1327.341919 2379.412842,1337.127319 2377.296387,1346.708618 
	C2373.154785,1365.456543 2368.629883,1384.123535 2364.004150,1402.759644 
	C2361.199463,1414.059814 2357.908447,1425.239258 2354.455078,1437.127930 
z"/>
<path fill="#FFFFFF" opacity="1.000000" stroke="none" 
	d="
M2376.004150,937.218262 
	C2372.203613,938.441650 2368.016602,939.371094 2363.829834,939.371704 
	C2130.858398,939.404175 1897.886841,939.339050 1664.915405,939.326599 
	C1321.623535,939.308228 978.331787,939.307495 635.039978,939.329529 
	C514.055359,939.337280 393.070801,939.433899 271.171997,939.647095 
	C268.553589,929.960693 271.537445,920.666443 273.462067,911.215271 
	C275.858429,899.447449 277.748718,887.575989 280.184113,875.816956 
	C281.932617,867.374451 283.681641,858.864990 286.394562,850.705994 
	C289.910583,840.131775 290.774475,828.696411 297.215698,818.475586 
	C302.033875,818.419800 306.278656,819.099365 310.523529,819.099670 
	C984.520630,819.146545 1658.517822,819.144043 2332.514893,819.155518 
	C2337.177246,819.155579 2341.839355,819.320618 2347.424805,819.697998 
	C2353.811523,841.324890 2359.478271,862.613159 2364.660400,884.018921 
	C2367.615234,896.225403 2369.766357,908.625977 2372.304688,920.933960 
	C2373.375732,926.126404 2374.511475,931.305603 2376.004150,937.218262 
z"/>
<path fill="#2C2255" opacity="1.000000" stroke="none" 
	d="
M2382.638672,1317.015869 
	C2378.228027,1317.540405 2374.242188,1317.339355 2370.256592,1317.337524 
	C2258.800293,1317.285767 2147.343994,1317.254150 2034.980347,1316.201904 
	C2034.172729,1313.527710 2034.069092,1311.828613 2034.402832,1310.220337 
	C2038.583008,1290.083008 2043.564697,1270.078247 2046.846558,1249.797852 
	C2050.122559,1229.553589 2051.712646,1209.036621 2054.041748,1188.639160 
	C2058.020264,1188.504639 2061.999023,1188.253906 2065.977539,1188.252563 
	C2174.037842,1188.213867 2282.097900,1188.200684 2391.709473,1188.165039 
	C2394.107422,1187.988403 2394.954102,1187.830078 2395.801025,1187.671753 
	C2395.921631,1192.153809 2396.284180,1196.644531 2396.124756,1201.116577 
	C2394.744385,1239.872437 2389.950928,1278.247803 2382.638672,1317.015869 
z"/>
<path fill="#2C2255" opacity="1.000000" stroke="none" 
	d="
M617.918213,1316.712158 
	C613.950439,1316.916138 609.982666,1317.296509 606.014832,1317.298218 
	C494.567780,1317.347168 383.120728,1317.357666 270.730774,1317.512207 
	C268.065430,1308.572998 265.761597,1299.561768 264.728943,1290.407227 
	C261.572388,1262.423584 258.834808,1234.391479 256.108948,1206.361328 
	C255.595947,1201.086182 255.887970,1195.732666 255.941223,1189.531494 
	C256.073914,1188.647461 255.449661,1188.127075 256.160858,1188.110840 
	C257.247040,1188.008911 257.621979,1187.923462 257.996918,1187.838013 
	C261.976105,1187.970459 265.955261,1188.217285 269.934479,1188.218750 
	C378.662750,1188.257568 487.391052,1188.271362 597.037231,1189.320801 
	C599.274963,1202.513672 600.084778,1214.757080 602.025757,1226.818604 
	C605.548401,1248.709106 609.754333,1270.489380 613.654114,1292.319458 
	C615.105713,1300.444946 616.498535,1308.580933 617.918213,1316.712158 
z"/>
<path fill="#B66D16" opacity="1.000000" stroke="none" 
	d="
M1158.557251,2247.673340 
	C1157.823608,2246.748779 1157.824219,2246.040039 1157.861572,2244.800293 
	C1160.384399,2244.639893 1162.870605,2245.010742 1165.356689,2245.381592 
	C1165.296997,2246.062500 1165.237183,2246.743408 1165.177368,2247.424561 
	C1163.215454,2247.579590 1161.253418,2247.734619 1158.557251,2247.673340 
z"/>
<path fill="#3D2507" opacity="1.000000" stroke="none" 
	d="
M1166.113525,11.767529 
	C1165.563599,11.707863 1165.679932,10.859903 1165.830688,10.459375 
	C1166.898193,9.911154 1167.814941,9.763459 1168.731689,9.615767 
	C1168.042358,10.352911 1167.352905,11.090054 1166.113525,11.767529 
z"/>
<path fill="#F4F4F6" opacity="1.000000" stroke="none" 
	d="
M2395.756104,1187.225342 
	C2394.954102,1187.830078 2394.107422,1187.988403 2392.633301,1187.992432 
	C2392.785156,1187.253296 2393.564453,1186.668701 2394.838379,1186.024414 
	C2395.333252,1185.964966 2395.711182,1186.778931 2395.756104,1187.225342 
z"/>
<path fill="#B87215" opacity="1.000000" stroke="none" 
	d="
M6.495028,1202.416992 
	C7.230778,1202.265869 7.604506,1202.790527 7.716037,1203.975586 
	C7.246527,1203.955688 6.806248,1203.441406 6.495028,1202.416992 
z"/>
<path fill="#B46B15" opacity="1.000000" stroke="none" 
	d="
M195.444794,1205.610229 
	C194.688904,1205.781006 194.312683,1205.262085 194.255127,1204.059814 
	C194.728424,1204.081299 195.145309,1204.595947 195.444794,1205.610229 
z"/>
<path fill="#B87215" opacity="1.000000" stroke="none" 
	d="
M8.506145,1228.415405 
	C9.246096,1228.260620 9.620017,1228.784058 9.722873,1229.971436 
	C9.252490,1229.951538 8.815261,1229.437622 8.506145,1228.415405 
z"/>
<path fill="#3E3466" opacity="1.000000" stroke="none" 
	d="
M257.757202,1067.407837 
	C257.670532,1067.878784 257.338013,1068.001831 256.481232,1068.034424 
	C255.956970,1067.943848 255.958267,1066.999268 256.046936,1066.535645 
	C256.655365,1066.316284 257.113953,1066.645508 257.757202,1067.407837 
z"/>
<path fill="#412707" opacity="1.000000" stroke="none" 
	d="
M9.553152,1016.135010 
	C9.875687,1016.328003 9.902433,1016.696411 9.714603,1017.575684 
	C9.312506,1017.695801 9.075987,1017.318787 8.962075,1016.907776 
	C8.917875,1016.748230 9.150732,1016.511841 9.553152,1016.135010 
z"/>
<path fill="#3E3076" opacity="1.000000" stroke="none" 
	d="
M664.304199,1438.601318 
	C667.325928,1437.776489 670.637207,1437.424194 673.948425,1437.423950 
	C1109.021973,1437.399292 1544.095581,1437.400391 1979.169067,1437.404785 
	C1981.500488,1437.404785 1983.831787,1437.465942 1987.073975,1437.731567 
	C1986.924805,1440.740967 1986.077759,1443.622070 1984.773071,1446.278320 
	C1962.318115,1491.988037 1936.041748,1535.387817 1904.755249,1575.583984 
	C1892.152344,1591.776245 1878.290405,1607.012207 1864.612793,1622.336548 
	C1855.130005,1632.960815 1844.983154,1642.992554 1834.585938,1652.875000 
	C1835.082886,1649.389526 1836.127197,1646.317993 1837.314697,1642.825439 
	C1832.660522,1638.550903 1827.093994,1640.063477 1822.046631,1640.062378 
	C1491.668457,1639.993408 1161.290283,1639.999878 830.912109,1640.000854 
	C828.247803,1640.000854 825.561768,1639.808228 822.926025,1640.086426 
	C820.799072,1640.311035 818.732971,1641.110962 816.237244,1641.760376 
	C818.337402,1647.076538 820.128906,1651.611572 821.920471,1656.146484 
	C812.904480,1652.458252 807.897644,1644.222900 801.305481,1637.813110 
	C797.753479,1634.359253 794.956787,1630.136597 791.467224,1626.609131 
	C769.916565,1604.823486 751.272400,1580.661011 733.231323,1555.984253 
	C706.452393,1519.356079 684.071655,1480.153320 664.304199,1438.601318 
z"/>
<path fill="#433481" opacity="1.000000" stroke="none" 
	d="
M822.264893,1656.707031 
	C820.128906,1651.611572 818.337402,1647.076538 816.237244,1641.760376 
	C818.732971,1641.110962 820.799072,1640.311035 822.926025,1640.086426 
	C825.561768,1639.808228 828.247803,1640.000854 830.912109,1640.000854 
	C1161.290283,1639.999878 1491.668457,1639.993408 1822.046631,1640.062378 
	C1827.093994,1640.063477 1832.660522,1638.550903 1837.314697,1642.825439 
	C1836.127197,1646.317993 1835.082886,1649.389526 1833.999390,1653.182617 
	C1828.908936,1658.671997 1824.077637,1663.701660 1818.767212,1668.160522 
	C1798.946167,1684.802979 1779.402466,1701.820679 1758.935059,1717.636963 
	C1735.213745,1735.968018 1709.513794,1751.424561 1683.488403,1766.316650 
	C1644.334351,1788.720947 1603.170898,1806.705444 1560.581055,1821.242676 
	C1525.944946,1833.064819 1490.604736,1842.683838 1454.303589,1848.106323 
	C1431.004272,1851.586670 1407.715576,1855.713135 1384.266357,1857.465210 
	C1357.434570,1859.469971 1330.407471,1860.170532 1303.507812,1859.561279 
	C1279.994141,1859.028442 1256.458862,1856.560913 1233.077271,1853.750000 
	C1198.057617,1849.540161 1163.554932,1842.300903 1129.585327,1832.771484 
	C1081.359131,1819.242554 1034.807739,1801.285889 990.412537,1778.065796 
	C948.148560,1755.960083 908.246216,1730.156128 870.983337,1700.270996 
	C854.111511,1686.739502 837.100830,1673.442139 822.264893,1656.707031 
z"/>
<path fill="#352966" opacity="1.000000" stroke="none" 
	d="
M618.822266,1316.993774 
	C616.498535,1308.580933 615.105713,1300.444946 613.654114,1292.319458 
	C609.754333,1270.489380 605.548401,1248.709106 602.025757,1226.818604 
	C600.084778,1214.757080 599.274963,1202.513672 597.957092,1189.496094 
	C600.941956,1188.479370 603.924927,1188.177979 606.907837,1188.177856 
	C1087.340210,1188.157349 1567.772461,1188.158691 2048.204834,1188.161987 
	C2049.537109,1188.161987 2050.869629,1188.204346 2053.121826,1188.433105 
	C2051.712646,1209.036621 2050.122559,1229.553589 2046.846558,1249.797852 
	C2043.564697,1270.078247 2038.583008,1290.083008 2034.402832,1310.220337 
	C2034.069092,1311.828613 2034.172729,1313.527710 2034.083740,1315.939575 
	C2030.792847,1316.919312 2027.491089,1317.340942 2024.189453,1317.341187 
	C1558.366821,1317.370239 1092.544189,1317.369141 626.721619,1317.365234 
	C624.389832,1317.365234 622.058105,1317.306519 618.822266,1316.993774 
z"/>
<path fill="#F4F4F6" opacity="1.000000" stroke="none" 
	d="
M257.811340,1187.575195 
	C257.621979,1187.923462 257.247040,1188.008911 256.391571,1187.776123 
	C256.451202,1186.958130 257.022766,1186.909668 257.811340,1187.575195 
z"/>
</svg>