<svg fill="#FFFFFF" xmlns="http://www.w3.org/2000/svg"  viewBox="0 0 32 32" width="64px" height="64px"><path d="M 14 5 C 7.9365932 5 3 9.9365932 3 16 C 3 22.063407 7.9365932 27 14 27 C 14.684405 27 15.353049 26.928603 16.003906 26.808594 C 16.652458 26.928273 17.317461 27 18 27 C 24.063291 27 29 22.063287 29 16 C 29 9.9367135 24.063291 5 18 5 C 17.317461 5 16.652458 5.0717273 16.003906 5.1914062 C 15.353049 5.0713971 14.684405 5 14 5 z M 18 7 C 21.129395 7 23.87653 8.5865687 25.488281 11 L 10.511719 11 C 12.12347 8.5865687 14.870605 7 18 7 z M 11.003906 7.5175781 C 8.5598788 9.5371655 7 12.590909 7 16 C 7 19.409091 8.5598788 22.462835 11.003906 24.482422 C 7.5030313 23.251035 5 19.929974 5 16 C 5 12.070026 7.5030313 8.7489654 11.003906 7.5175781 z M 9.5195312 13 L 26.480469 13 C 26.704979 13.63727 26.865012 14.305335 26.941406 15 L 9.0585938 15 C 9.1349878 14.305335 9.2950207 13.63727 9.5195312 13 z M 9.0585938 17 L 26.941406 17 C 26.865012 17.694665 26.704979 18.36273 26.480469 19 L 9.5195312 19 C 9.2950207 18.36273 9.1349878 17.694665 9.0585938 17 z M 10.511719 21 L 25.488281 21 C 23.87653 23.413431 21.129395 25 18 25 C 14.870605 25 12.12347 23.413431 10.511719 21 z"/></svg>